/* XPM */
static char * product_logo_32_xpm[] = {
"32 32 296 2",
"  	c None",
". 	c #131313",
"+ 	c #151515",
"@ 	c #333433",
"# 	c #323232",
"$ 	c #222222",
"% 	c #202020",
"& 	c #2F2F2E",
"* 	c #212121",
"= 	c #0B0B0B",
"- 	c #343434",
"; 	c #3A3B3B",
"> 	c #484948",
", 	c #2E2E2E",
"' 	c #383938",
") 	c #494949",
"! 	c #3B3B3B",
"~ 	c #3A3A3A",
"{ 	c #393939",
"] 	c #525252",
"^ 	c #272727",
"/ 	c #2E2E2D",
"( 	c #2B2C2B",
"_ 	c #3A3B3A",
": 	c #373838",
"< 	c #424242",
"[ 	c #303030",
"} 	c #323332",
"| 	c #4D4E4D",
"1 	c #454645",
"2 	c #444444",
"3 	c #2F302F",
"4 	c #3B3B3A",
"5 	c #404140",
"6 	c #363636",
"7 	c #1D1D1C",
"8 	c #3F3F3E",
"9 	c #363737",
"0 	c #3C3D3C",
"a 	c #656565",
"b 	c #7C7D7C",
"c 	c #7F7F7F",
"d 	c #9A9B9A",
"e 	c #A3A3A3",
"f 	c #858585",
"g 	c #7A7B7A",
"h 	c #646464",
"i 	c #393A39",
"j 	c #4F4F4F",
"k 	c #373737",
"l 	c #333333",
"m 	c #2C2C2C",
"n 	c #363736",
"o 	c #3C3C3C",
"p 	c #515251",
"q 	c #7D7D7C",
"r 	c #AAAAA9",
"s 	c #DEDEDE",
"t 	c #F6F6F6",
"u 	c #FFFFFF",
"v 	c #F7F7F6",
"w 	c #E1E1E0",
"x 	c #A9AAA9",
"y 	c #777776",
"z 	c #343534",
"A 	c #3F403F",
"B 	c #2D2D2D",
"C 	c #464746",
"D 	c #555555",
"E 	c #AFAFAF",
"F 	c #F1F1F1",
"G 	c #FEFEFE",
"H 	c #B4B4B4",
"I 	c #575756",
"J 	c #414141",
"K 	c #4E4F4E",
"L 	c #0F0F0F",
"M 	c #353535",
"N 	c #4C4D4C",
"O 	c #777877",
"P 	c #D7D7D7",
"Q 	c #FDFDFD",
"R 	c #F0F0EF",
"S 	c #B6B5B5",
"T 	c #8F8F8F",
"U 	c #B6B6B6",
"V 	c #F0F0F0",
"W 	c #D1D1D1",
"X 	c #797979",
"Y 	c #3D3D3D",
"Z 	c #454545",
"` 	c #272827",
" .	c #2D2E2D",
"..	c #3E3F3E",
"+.	c #656665",
"@.	c #E1E1E1",
"#.	c #C0C0C0",
"$.	c #0C0C0C",
"%.	c #010101",
"&.	c #0C0C0D",
"*.	c #434444",
"=.	c #C6C7C7",
"-.	c #E0E0E0",
";.	c #747574",
">.	c #383838",
",.	c #464646",
"'.	c #4A4A4A",
").	c #3B3C3B",
"!.	c #656564",
"~.	c #D4D4D4",
"{.	c #D0D0D0",
"].	c #2A2A2B",
"^.	c #000000",
"/.	c #5B5B5B",
"(.	c #575857",
"_.	c #1D1D1E",
":.	c #DCDCDC",
"<.	c #CCCCCC",
"[.	c #626362",
"}.	c #444544",
"|.	c #181818",
"1.	c #414242",
"2.	c #515151",
"3.	c #6C6C6C",
"4.	c #CACACB",
"5.	c #C3C3C3",
"6.	c #7E7E7E",
"7.	c #4C4C4C",
"8.	c #1C1C1C",
"9.	c #676867",
"0.	c #F4F4F3",
"a.	c #747474",
"b.	c #636464",
"c.	c #494848",
"d.	c #FBFBFA",
"e.	c #686969",
"f.	c #434443",
"g.	c #B5B6B5",
"h.	c #EAEAEA",
"i.	c #919191",
"j.	c #7C7C7C",
"k.	c #F4F4F4",
"l.	c #AAAAAA",
"m.	c #4F504F",
"n.	c #4E4E4D",
"o.	c #1F201F",
"p.	c #424342",
"q.	c #636463",
"r.	c #DDDEDD",
"s.	c #2A2B2A",
"t.	c #929292",
"u.	c #7D7D7D",
"v.	c #DBDCDC",
"w.	c #616161",
"x.	c #313131",
"y.	c #303130",
"z.	c #111111",
"A.	c #161716",
"B.	c #6A6A69",
"C.	c #DDDDDD",
"D.	c #DADADA",
"E.	c #D5D4D5",
"F.	c #E7E7E7",
"G.	c #6B6B6B",
"H.	c #3E3E3D",
"I.	c #2A2A2A",
"J.	c #343535",
"K.	c #979797",
"L.	c #FCFCFC",
"M.	c #373636",
"N.	c #070707",
"O.	c #101010",
"P.	c #171717",
"Q.	c #0E0E0E",
"R.	c #0A0A0A",
"S.	c #BFBFBF",
"T.	c #868786",
"U.	c #4E4E4E",
"V.	c #474847",
"W.	c #2F3030",
"X.	c #535453",
"Y.	c #A0A0A0",
"Z.	c #5A5A5A",
"`.	c #121212",
" +	c #0F0F10",
".+	c #9E9F9E",
"++	c #383939",
"@+	c #404040",
"#+	c #1D1E1D",
"$+	c #3A3A39",
"%+	c #8A8A8A",
"&+	c #252525",
"*+	c #BFC0C0",
"=+	c #B2B2B2",
"-+	c #1B1B1C",
";+	c #605F5F",
">+	c #8E8E8E",
",+	c #3C3C3B",
"'+	c #8B8B8B",
")+	c #FBFBFB",
"!+	c #525353",
"~+	c #FAFAFA",
"{+	c #2F2F2F",
"]+	c #5D5D5D",
"^+	c #424241",
"/+	c #191919",
"(+	c #3E3E3E",
"_+	c #F2F2F2",
":+	c #C4C4C4",
"<+	c #B3B3B3",
"[+	c #5C5C5D",
"}+	c #F0F1F0",
"|+	c #767776",
"1+	c #1B1B1B",
"2+	c #4B4C4B",
"3+	c #D5D5D5",
"4+	c #FEFFFF",
"5+	c #D9D9D9",
"6+	c #C8C8C8",
"7+	c #D2D2D2",
"8+	c #5D5D5C",
"9+	c #474747",
"0+	c #ACACAB",
"a+	c #1F1F1F",
"b+	c #969696",
"c+	c #919090",
"d+	c #5E5E5E",
"e+	c #9D9D9D",
"f+	c #3D3E3D",
"g+	c #7A7A7A",
"h+	c #EDEDED",
"i+	c #5F6060",
"j+	c #040404",
"k+	c #6D6D6D",
"l+	c #E8E8E7",
"m+	c #6C6C6B",
"n+	c #434343",
"o+	c #9D9C9C",
"p+	c #3F3F3F",
"q+	c #242424",
"r+	c #232324",
"s+	c #232323",
"t+	c #3D3E3E",
"u+	c #C2C2C2",
"v+	c #969695",
"w+	c #494A49",
"x+	c #616160",
"y+	c #E1E2E1",
"z+	c #DFE0E0",
"A+	c #DFDFE0",
"B+	c #E0E0E1",
"C+	c #C7C7C7",
"D+	c #585857",
"E+	c #414241",
"F+	c #161616",
"G+	c #717170",
"H+	c #CFCFCE",
"I+	c #D3D3D3",
"J+	c #3D3D3C",
"K+	c #4D4D4D",
"L+	c #696968",
"M+	c #C8C9C8",
"N+	c #575757",
"O+	c #313231",
"P+	c #5E5F5F",
"Q+	c #949494",
"R+	c #E3E3E2",
"S+	c #E2E2E1",
"T+	c #9D9D9C",
"U+	c #282828",
"V+	c #A5A5A4",
"W+	c #CFCFCF",
"X+	c #EBEBEB",
"Y+	c #F8F8F8",
"Z+	c #F7F7F7",
"`+	c #CECECD",
" @	c #616261",
".@	c #505050",
"+@	c #292929",
"@@	c #1A1A1A",
"#@	c #404141",
"$@	c #6E6E6E",
"%@	c #868686",
"&@	c #888988",
"*@	c #838383",
"=@	c #4D4E4E",
"-@	c #373837",
";@	c #303131",
">@	c #3C3D3D",
",@	c #2B2C2C",
"'@	c #393938",
")@	c #353636",
"!@	c #212222",
"~@	c #141414",
"{@	c #1A1A19",
"]@	c #262625",
"                        . + @ # $ % & *                         ",
"                  = - ; > , ' ) ! ~ { ] ^ /                     ",
"                ' ( _ : < [ } | { _ 1 2 3 4 5 6                 ",
"            7 8 < ~ 9 0 a b c d e f g h ) i j k l (             ",
"          m m n o p q r s t u u u u v w x y | z l A @           ",
"        B C A ~ D E F u u G u u u u G u u F H I J K A +         ",
"      L 1 M N O P u G Q u R S T T U V u Q G u W X Y # Z `       ",
"      ~  ...+.@.u Q Q u #.< $.%.%.&.*.=.u Q Q u -.;.>._ ,.      ",
"    3 '.).!.~.u Q Q u {.].^.* /.(._.^.l :.u Q Q u <.[.}.Z |.    ",
"    1.} 2.E u Q Q Q u 3.^.^ 4.u u 5.* ^.6.u Q Q Q u E 7.} 2     ",
"  8., 0 9.V G Q Q G 0.! ^.a.u Q Q u b.^.c.d.Q Q Q G V e.i ' @   ",
"  *.'.f.g.u Q Q Q G h.m %.i.u Q Q u j.^.>.k.G Q Q Q u l.m.n.Y   ",
"o.; p.q.r.u Q Q Q G h.s.%.t.u u u u u.^.k k.G Q Q Q u v.w.x.y.z.",
"A.Y ' B.t Q Q Q Q u C.` %.6.D.E.~.D.3.^.- F.u Q Q Q G k.G.k H.I.",
"* Y J.K.L.Q Q Q u H M.N.^.O.|.P.P.|.Q.^.R.! S.u Q Q Q L.T.U.V.W.",
"[ ) X.Y.u Q Q Q u Z.^.^.^.^.^.`. +^.^.^.^.^.3.u Q Q Q G .+++@+#+",
"# { $+%+u Q Q Q G 2.^.^.^.^.&+*+=+-+^.^.^.^.;+u Q Q Q u >+,+{ % ",
"|.[ M '+)+Q Q Q u !+^.^.^.^.Y ~+V {+^.^.^.^.]+u Q Q Q L.u.^+- 3 ",
"/+7.(+j._+G Q Q u !+^.^.^.^.`.:+<+$.^.^.^.^.[+u Q Q G }+|+p.!+` ",
"1+{ (+2+3+u Q Q 4+] ^.^.^.^.|.5+6+z.^.^.^.^.[+u Q Q u 7+8+x.B L ",
"  Y M 9+0+u Q Q G ] ^.^.^.^.a+b+c+|.^.^.^.^.d+u Q Q u e+f+M _   ",
"  + z n g+h+G Q u i+^.^.^.^.^.j+j+^.^.^.^.^.k+u Q u l+m+2+@+,   ",
"    C 9+n+o+u Q u S.p+q+r+$ $ $ $ $ $ s+s+t+u+u Q u v+w+[ w+    ",
"    {+i ' x+<.u Q u F y+@.-.-.-.z+A+-.B+B+V u Q u C+D+n E+F+    ",
"      B x...G+H+u Q G u u u u u u u u u u G Q u I+3.2 < J+      ",
"      `.K+2 M L+M+u u Q Q Q Q Q Q Q Q Q Q u G C+N+p+[ U.%       ",
"        ^ p+k O+P+Q+R+u u G Q Q Q Q G u u S+T+/.2+[ ! L         ",
"          * U+N 9+M k+V+W+X+Y+G L.Z+h.`+e  @A m .@Y +@          ",
"            @@#@M 6 {+p n+$@%@u.&@*@d+U.p+=@x.-@x.q+            ",
"                ;@s+2.).z , ) >@~ -@w+- [ X.t+{+                ",
"                    ,@k '@@ | i )@'.p.n+!@U+                    ",
"                          ~@U+B {@@@]@                          "};
